# xmcd
#
# Track frame offsets:
#	150
#	12140
#	23721
#	35599
#	47561
#	59169
#	72135
#	85512
#	98277
#	112476
#	126605
#	137817
#	150952
#	165084
#	179010
#	192787
#	205750
#	219956
#	232323
#	245166
#	256226
#	270775
#	283110
#	295827
#
# Disc length: 4121 seconds
#
# Revision: 0
# Processed by: cddbd v1.5.2PL0 Copyright (c) Steve Scherf et al.
# Submitted via: EasyCDDAExtractor 15.3.0.1
#
DISCID=56101718
DTITLE=Light Crust Doughboys - Roll Up The Carpet
DYEAR=1900
DGENRE=
TTITLE0=Dusty Steveador
TTITLE1=Happy Cowboy
TTITLE2=Horsie Keep Your Tail Up
TTITLE3=I Had Someone Else Before I Met You
TTITLE4=I'll Get Mine
TTITLE5=I'm A Ding Dong Daddy
TTITLE6=Memories Of Jimmie Rodgers
TTITLE7=It's Funny What Love Will Make You Do
TTITLE8=My Mary
TTITLE9=My Million Dollar Smile
TTITLE10=Oh Baby Blues You Won't Have No Mama At All
TTITLE11=Ragtime Annie
TTITLE12=She's Still That Ole Sweetheart Of Mine
TTITLE13=Rochester Schottische
TTITLE14=There's A Little Grey Mother Dreaming
TTITLE15=Roll Up The Carpet
TTITLE16=Please Come Back To Me
TTITLE17=Snow Deer
TTITLE18=Prairie Lullaby
TTITLE19=Thousand Mile Blues
TTITLE20=Your Own Sweet Darling Wife
TTITLE21=Waiting For The Robert E. Lee
TTITLE22=Weary Blues
TTITLE23=My Pretty Quadron
EXTD=
EXTT0=
EXTT1=
EXTT2=
EXTT3=
EXTT4=
EXTT5=
EXTT6=
EXTT7=
EXTT8=
EXTT9=
EXTT10=
EXTT11=
EXTT12=
EXTT13=
EXTT14=
EXTT15=
EXTT16=
EXTT17=
EXTT18=
EXTT19=
EXTT20=
EXTT21=
EXTT22=
EXTT23=
PLAYORDER=
